<svg width="28" height="28" viewBox="0 0 28 28" fill="none" xmlns="http://www.w3.org/2000/svg">
<path fill-rule="evenodd" clip-rule="evenodd" d="M14 27.75C6.40608 27.75 0.25 21.5939 0.25 14C0.25 6.40608 6.40608 0.25 14 0.25C21.5939 0.25 27.75 6.40608 27.75 14C27.75 21.5939 21.5939 27.75 14 27.75ZM25.0847 15.9322C22.6679 15.3707 20.4083 15.2263 18.2985 15.5021C19.3498 18.0962 20.115 20.6342 20.5932 23.1165C22.9191 21.4314 24.5748 18.8782 25.0847 15.9322ZM18.2848 24.4053C17.836 21.7049 17.014 18.9168 15.8174 16.0415C12.4582 17.0806 9.51806 19.321 6.96281 22.7778C8.88972 24.3246 11.3368 25.25 14 25.25C15.5171 25.25 16.9641 24.9497 18.2848 24.4053ZM5.18171 20.9864C7.93956 17.3598 11.1524 14.9416 14.7907 13.7449C14.5561 13.2535 14.3108 12.7595 14.055 12.2632C13.4089 12.4357 12.7392 12.5847 12.0466 12.7113C9.25826 13.2211 6.84138 13.3203 2.92122 13.2643C2.86979 13.2636 2.8207 13.2629 2.77381 13.2622C2.75802 13.5061 2.75 13.7521 2.75 14C2.75 16.6399 3.65927 19.0674 5.18171 20.9864ZM3.22112 10.7681C4.11311 7.78892 6.20653 5.32871 8.93888 3.95001C10.3974 6.00296 11.6916 8.01827 12.822 9.99578C12.4246 10.0901 12.0162 10.1755 11.597 10.2521C9.07497 10.7132 6.83123 10.8138 3.22112 10.7681ZM11.3694 3.05923C12.8326 5.15369 14.1329 7.21574 15.27 9.24553C17.6659 8.319 19.5257 6.94203 20.7929 5.03156C18.9054 3.59968 16.5519 2.75 14 2.75C13.0941 2.75 12.2133 2.85706 11.3694 3.05923ZM22.6264 6.77819C24.1449 8.59017 25.1032 10.8877 25.2345 13.4041C22.4069 12.7947 19.7477 12.7048 17.2651 13.1306C17.0079 12.5786 16.738 12.024 16.4556 11.467C19.0317 10.4245 21.1175 8.89355 22.6264 6.77819Z" fill="#0B82C5"/>
</svg>
