<svg width="30" height="30" viewBox="0 0 30 30" fill="none" xmlns="http://www.w3.org/2000/svg">
<path fill-rule="evenodd" clip-rule="evenodd" d="M5 2.5H25C26.3807 2.5 27.5 3.61929 27.5 5V25C27.5 26.3807 26.3807 27.5 25 27.5H5C3.61929 27.5 2.5 26.3807 2.5 25V5C2.5 3.61929 3.61929 2.5 5 2.5ZM5 5V25H25V5H5ZM13.9163 15.0055H16.25V22.5H18.75V15.0055H21.228V12.5055H18.75V11.25C18.75 10.5596 19.3096 10 20 10H21.25V7.5H20C17.9289 7.5 16.25 9.17893 16.25 11.25V12.5055H13.9163V15.0055Z" fill="#0B82C5"/>
</svg>
