<svg width="30" height="30" viewBox="0 0 30 30" fill="none" xmlns="http://www.w3.org/2000/svg">
<path fill-rule="evenodd" clip-rule="evenodd" d="M26.3994 5.63534L28.1678 5.84187L27.3729 7.435C26.9853 8.21191 26.5972 8.98882 26.2088 9.76572C26.1627 9.93027 26.0818 10.0745 25.9621 10.2623C25.9121 10.3408 25.7411 10.5904 25.7331 10.6024C25.688 10.6701 25.6547 10.7235 25.6306 10.7662V13.7519C25.6306 21.3919 18.2369 26.2468 11.2544 26.2468C9.82564 26.2468 8.74008 26.1783 7.49706 25.9071C5.45144 25.4607 3.92909 24.5733 3.23247 23.0225L2.51526 21.4258L4.25824 21.2655C5.83501 21.1205 7.20211 20.8202 8.25198 20.4179C5.36971 19.9544 3.7545 18.6885 3.7545 16.3111V15.0611H5.0045C5.27914 15.0611 5.52678 15.0388 5.74818 14.9979C3.585 13.7046 2.50153 11.6297 2.50153 8.7519C2.50129 8.62924 2.50129 8.62924 2.50055 8.49809C2.49243 7.04753 2.57034 6.27246 2.96743 5.28324C3.22193 4.64926 3.58979 4.06235 4.08487 3.52459L5.02814 2.5L5.94522 3.54808C8.96742 7.00201 11.9549 9.09744 15.0052 9.3509C15.0182 6.16381 17.4269 3.7519 20.6304 3.7519C22.1238 3.7519 23.4785 4.31877 24.5431 5.34091C25.1258 5.46064 25.7446 5.55886 26.3994 5.63534ZM23.6358 7.70252L23.2526 7.61575L22.988 7.32534C22.3481 6.62318 21.5449 6.2519 20.6304 6.2519C18.8017 6.2519 17.5052 7.55488 17.5052 9.3769C17.5052 9.67467 17.4975 9.86177 17.4604 10.1077C17.3124 11.089 16.762 11.8769 15.6301 11.8769C11.8826 11.8769 8.5017 9.86927 5.20487 6.44035C5.03491 6.95701 4.99493 7.48809 5.00051 8.48409C5.00127 8.61729 5.00127 8.61729 5.00153 8.7519C5.00153 11.3119 6.03867 12.7122 8.49433 13.4927L9.36569 13.7697V14.684C9.36569 15.7927 8.31527 16.8364 6.77835 17.3039C7.48289 17.8384 8.92375 18.1269 11.2549 18.1269H12.5049V19.3769C12.5049 21.1678 10.447 22.5701 7.33844 23.3023C8.35223 23.6129 9.70207 23.7468 11.2544 23.7468C17.0225 23.7468 23.1306 19.736 23.1306 13.7519V10.6269C23.1306 10.2597 23.2371 9.94092 23.4139 9.60949C23.4831 9.47991 23.5592 9.35637 23.6532 9.21547C23.6709 9.18894 23.7365 9.09283 23.7886 9.01599L23.8877 8.81786C24.0482 8.49681 24.2087 8.17576 24.3691 7.85471C24.1198 7.80749 23.8754 7.75676 23.6358 7.70252Z" fill="#0B82C5"/>
</svg>
