<svg width="30" height="30" viewBox="0 0 30 30" fill="none" xmlns="http://www.w3.org/2000/svg">
<path fill-rule="evenodd" clip-rule="evenodd" d="M18.7493 8.75H21.2493V15C21.2493 18.0887 21.4862 18.75 22.4993 18.75C24.1297 18.75 24.9993 17.9789 24.9993 15C24.9993 8.38831 21.6831 5 14.9995 5C10.6694 5.00054 6.83164 7.78783 5.49163 11.9053C4.15162 16.0228 5.61384 20.5349 9.11419 23.0839C12.6145 25.6328 17.3577 25.6393 20.865 23.1L22.3311 25.125C17.9469 28.2991 12.018 28.2909 7.64255 25.1048C3.26711 21.9187 1.43934 16.2785 3.11435 11.1316C4.78937 5.98479 9.58659 2.50068 14.9993 2.5C23.076 2.5 27.4993 7.0195 27.4993 15C27.4993 19.4311 25.4479 21.25 22.4993 21.25C20.8195 21.25 19.8581 20.7084 19.3304 19.5061C18.207 20.5861 16.6807 21.25 14.9993 21.25C11.5475 21.25 8.74931 18.4518 8.74931 15C8.74931 11.5482 11.5475 8.75 14.9993 8.75C16.4063 8.75 17.7047 9.21493 18.7493 9.99954V8.75ZM18.7493 15C18.7493 17.0711 17.0704 18.75 14.9993 18.75C12.9282 18.75 11.2493 17.0711 11.2493 15C11.2493 12.9289 12.9282 11.25 14.9993 11.25C17.0704 11.25 18.7493 12.9289 18.7493 15Z" fill="#0B82C5"/>
</svg>
