<svg width="50" height="50" viewBox="0 0 50 50" fill="none" xmlns="http://www.w3.org/2000/svg">
<path fill-rule="evenodd" clip-rule="evenodd" d="M39.5833 35.4167V14.5833C39.5833 6.52918 33.0541 0 25 0C16.9458 0 10.4166 6.52918 10.4166 14.5833V35.4167C10.4166 43.4708 16.9458 50 25 50C33.0541 50 39.5833 43.4708 39.5833 35.4167ZM25 4.16667C30.7529 4.16667 35.4166 8.83037 35.4166 14.5833V35.4167C35.4166 41.1696 30.7529 45.8333 25 45.8333C19.247 45.8333 14.5833 41.1696 14.5833 35.4167V14.5833C14.5833 8.83037 19.247 4.16667 25 4.16667ZM16.6666 14.5833C16.6666 9.98096 20.3976 6.25 25 6.25C29.6024 6.25 33.3333 9.98096 33.3333 14.5833C33.3333 19.1857 29.6024 22.9167 25 22.9167C20.3976 22.9167 16.6666 19.1857 16.6666 14.5833ZM25 18.75C22.6988 18.75 20.8333 16.8845 20.8333 14.5833C20.8333 12.2821 22.6988 10.4167 25 10.4167C27.3012 10.4167 29.1666 12.2821 29.1666 14.5833C29.1666 16.8845 27.3012 18.75 25 18.75Z" fill="white"/>
</svg>
